<svg id="_0001_analysis" xmlns="http://www.w3.org/2000/svg" xmlns:xlink="http://www.w3.org/1999/xlink" viewBox="0 0 500 500" data-imageid="fishing-83" imageName="Fishing" class="illustrations_image" style="width: 166px;"><defs><style>.cls-1_fishing-83{fill:none;}.cls-1_fishing-83,.cls-2_fishing-83,.cls-3_fishing-83,.cls-4_fishing-83,.cls-5_fishing-83,.cls-6_fishing-83,.cls-7_fishing-83,.cls-8_fishing-83,.cls-9_fishing-83,.cls-10_fishing-83,.cls-11_fishing-83,.cls-12_fishing-83,.cls-13_fishing-83,.cls-14_fishing-83,.cls-15_fishing-83,.cls-16_fishing-83,.cls-17_fishing-83,.cls-18_fishing-83,.cls-19_fishing-83,.cls-20_fishing-83,.cls-21_fishing-83,.cls-22_fishing-83,.cls-23_fishing-83,.cls-24_fishing-83,.cls-25_fishing-83,.cls-26_fishing-83{stroke-width:0px;}.cls-2_fishing-83{fill:url(#linear-gradient);}.cls-3_fishing-83{fill:url(#linear-gradient-11-fishing-83);}.cls-4_fishing-83{fill:url(#linear-gradient-12-fishing-83);}.cls-5_fishing-83{fill:url(#linear-gradient-13-fishing-83);}.cls-6_fishing-83{fill:url(#linear-gradient-10-fishing-83);}.cls-7_fishing-83{fill:url(#linear-gradient-17-fishing-83);}.cls-8_fishing-83{fill:url(#linear-gradient-16-fishing-83);}.cls-9_fishing-83{fill:url(#linear-gradient-19-fishing-83);}.cls-10_fishing-83{fill:url(#linear-gradient-15-fishing-83);}.cls-11_fishing-83{fill:url(#linear-gradient-18-fishing-83);}.cls-12_fishing-83{fill:url(#linear-gradient-14-fishing-83);}.cls-13_fishing-83{fill:url(#linear-gradient-20-fishing-83);}.cls-14_fishing-83{fill:url(#linear-gradient-4-fishing-83);}.cls-15_fishing-83{fill:url(#linear-gradient-2-fishing-83);}.cls-16_fishing-83{fill:url(#linear-gradient-3-fishing-83);}.cls-17_fishing-83{fill:url(#linear-gradient-8-fishing-83);}.cls-18_fishing-83{fill:url(#linear-gradient-9-fishing-83);}.cls-19_fishing-83{fill:url(#linear-gradient-7-fishing-83);}.cls-20_fishing-83{fill:url(#linear-gradient-5-fishing-83);}.cls-21_fishing-83{fill:url(#linear-gradient-6-fishing-83);}.cls-22_fishing-83{opacity:.27;}.cls-22_fishing-83,.cls-25_fishing-83{fill:#68e1fd;}.cls-22_fishing-83,.cls-26_fishing-83{isolation:isolate;}.cls-23_fishing-83{fill:#231f20;}.cls-24_fishing-83{fill:#ffaa71;}.cls-26_fishing-83{fill:#fff;opacity:.25;}</style><linearGradient id="linear-gradient-fishing-83" x1="251.24" y1="273.2" x2="269.24" y2="935.2" gradientUnits="userSpaceOnUse"><stop offset="0" stop-color="#231f20" stop-opacity="0"/><stop offset="1" stop-color="#231f20"/></linearGradient><linearGradient id="linear-gradient-2-fishing-83" x1="257.26" y1="280.44" x2="242.26" y2="692.44" xlink:href="#linear-gradient-fishing-83"/><linearGradient id="linear-gradient-3-fishing-83" x1="416.33" y1="844.35" x2="422.04" y2="818.34" gradientTransform="translate(-30.61 1153.14) scale(1 -1)" xlink:href="#linear-gradient-fishing-83"/><linearGradient id="linear-gradient-4-fishing-83" x1="236.53" y1="958.86" x2="234.41" y2="946.92" gradientTransform="translate(-31 1192.51) scale(1 -1)" xlink:href="#linear-gradient-fishing-83"/><linearGradient id="linear-gradient-5-fishing-83" x1="225.62" y1="976.55" x2="271.88" y2="976.55" gradientTransform="translate(-30.61 1153.14) scale(1 -1)" xlink:href="#linear-gradient-fishing-83"/><linearGradient id="linear-gradient-6-fishing-83" x1="232.89" y1="973.26" x2="229.83" y2="965.76" gradientTransform="translate(-30.61 1153.14) scale(1 -1)" xlink:href="#linear-gradient-fishing-83"/><linearGradient id="linear-gradient-7-fishing-83" x1="267.78" y1="964.85" x2="267.78" y2="957.23" gradientTransform="translate(-30.61 1153.14) scale(1 -1)" xlink:href="#linear-gradient-fishing-83"/><linearGradient id="linear-gradient-8-fishing-83" x1="242.92" y1="948.27" x2="258.29" y2="924.48" gradientTransform="translate(-30.61 1153.14) scale(1 -1)" xlink:href="#linear-gradient-fishing-83"/><linearGradient id="linear-gradient-9-fishing-83" x1="232.53" y1="943.53" x2="270.48" y2="875.6" gradientTransform="translate(-30.61 1153.14) scale(1 -1)" xlink:href="#linear-gradient-fishing-83"/><linearGradient id="linear-gradient-10-fishing-83" x1="262.49" y1="924.76" x2="301.92" y2="924.76" gradientTransform="translate(-30.61 1153.14) scale(1 -1)" xlink:href="#linear-gradient-fishing-83"/><linearGradient id="linear-gradient-11-fishing-83" x1="258.47" y1="960.05" x2="248.99" y2="959.85" gradientTransform="translate(-30.61 1153.14) scale(1 -1)" xlink:href="#linear-gradient-fishing-83"/><linearGradient id="linear-gradient-12-fishing-83" x1="261.69" y1="901.95" x2="261.81" y2="890.17" gradientTransform="translate(-30.61 1153.14) scale(1 -1)" xlink:href="#linear-gradient-fishing-83"/><linearGradient id="linear-gradient-13-fishing-83" x1="466.54" y1="900.51" x2="476.1" y2="900.51" gradientTransform="translate(-31 1192.51) scale(1 -1)" xlink:href="#linear-gradient-fishing-83"/><linearGradient id="linear-gradient-14-fishing-83" x1="513.06" y1="964.46" x2="395.72" y2="923.22" gradientTransform="translate(-30.61 1153.14) scale(1 -1)" xlink:href="#linear-gradient-fishing-83"/><linearGradient id="linear-gradient-15-fishing-83" x1="497.82" y1="903.36" x2="466.53" y2="906.32" gradientTransform="translate(-30.61 1153.14) scale(1 -1)" xlink:href="#linear-gradient-fishing-83"/><linearGradient id="linear-gradient-16-fishing-83" x1="249.67" y1="186.43" x2="359.13" y2="485.5" xlink:href="#linear-gradient-fishing-83"/><linearGradient id="linear-gradient-17-fishing-83" x1="301.85" y1="923.4" x2="302.28" y2="882.39" gradientTransform="translate(-30.61 1153.14) scale(1 -1)" xlink:href="#linear-gradient-fishing-83"/><linearGradient id="linear-gradient-18-fishing-83" x1="248.36" y1="938.14" x2="285.16" y2="938.14" gradientTransform="translate(-31 1192.51) scale(1 -1)" xlink:href="#linear-gradient-fishing-83"/><linearGradient id="linear-gradient-19-fishing-83" x1="284.77" y1="898.78" x2="293.64" y2="898.78" gradientTransform="translate(-30.61 1153.14) scale(1 -1)" xlink:href="#linear-gradient-fishing-83"/><linearGradient id="linear-gradient-20-fishing-83" x1="247.68" y1="160.83" x2="391.35" y2="794.17" xlink:href="#linear-gradient-fishing-83"/></defs><path id="background_fishing-83" class="cls-22_fishing-83 targetColor" d="M9.3,334.49S-.21,174.82,69.24,152.02c69.45-22.8,97.55-49.69,107.76-65.73,10.2-16.04,66.34-49.27,113.9-24.53,47.55,24.73,43.76,65.04,89.43,68.19,45.67,3.15,92.72,11.87,92.72,51.19s17.44,125.19,17.44,125.19c0,0-392.64,102.08-481.18,28.16h0Z" style="fill: rgb(104, 225, 253);"/><g id="sea_fishing-83"><path class="cls-25_fishing-83 targetColor" d="M490.09,343.61c-1.1,6.83-2.82,13.55-5.12,20.07-10.91,30.9-38.58,64.8-105.53,75.39-119.77,18.91-297.57,8.45-355.93-75.7-2.6-3.75-4.97-7.67-7.08-11.71-2.88-5.49-5.26-11.23-7.12-17.15,0,0,25.75-6.12,50.91-3.22,25.16,2.89,64.62-7.6,92.36-4.6,27.74,3.01,62.65,2.73,62.65,2.73,0,0,193.62-17.3,229.86-11.97,36.23,5.33,45.38-11.09,45.38-11.09,1.85,12.37,1.72,24.95-.37,37.27v-.02Z" style="fill: rgb(104, 225, 253);"/><path class="cls-2_fishing-83" d="M490.09,343.61c-5.63,34.55-28.64,82.49-110.68,95.46-125.1,19.77-313.56,7.46-363.01-87.45,1.9-.34,3.84-.47,5.77-.38,5.76.23,12.02,1.23,16.9-1.86,2.85-1.81,4.79-4.81,7.63-6.65,5.55-3.59,12.8-1.88,19.32-.8,34.59,5.77,70.96-9.7,104.63.12,4.83,1.42,9.54,3.38,14.53,4.03,5.55.78,11.18,0,16.74-.75,31.47-4.24,64.03-7.19,94.5,1.7,17.72,5.16,37.51,14.06,53.4,4.7,3.63-2.14,6.7-5.1,10.14-7.5,7.08-4.92,15.55-7.38,23.85-9.74,17.66-4.97,37.42-11.76,56.04-10.34,14.15,1.13,28.72,10.59,41.84,15.77,2.78,1.12,5.63,2.33,8.43,3.69h-.03Z"/><path class="cls-15_fishing-83" d="M484.96,363.68c-10.91,30.9-38.58,64.8-105.53,75.39-119.77,18.91-297.57,8.45-355.93-75.7,31.54,1.95,64.2-9.87,94.72-.98,4.83,1.42,9.54,3.38,14.53,4.03,5.55.78,11.18,0,16.74-.75,31.47-4.24,64.03-7.19,94.5,1.7,17.72,5.16,37.51,14.06,53.4,4.7,3.63-2.14,6.7-5.1,10.14-7.5,7.08-4.92,15.55-7.38,23.85-9.74,17.66-4.97,37.42-11.76,56.04-10.34,14.15,1.13,28.72,10.59,41.84,15.77,1.64.64,31.4,2.08,55.71,3.44v-.02Z"/><path class="cls-25_fishing-83 targetColor" d="M482.97,301.98c-3.65.14-6.99,1.99-10.14,3.89s-6.32,3.91-9.95,4.4c-6.95.97-13.52-3.84-20.57-3.69-6.59.15-12.53,4.64-19.15,4.6-3.71,0-7.3-1.5-11-1.37-4.66.15-9.17,2.82-13.78,1.99-1.55-.27-3.02-.95-4.56-1.28-6.95-1.53-13.43,3.65-20.27,5.47-5.86,1.54-12.06.62-18.12.96-12.89.71-24.72,7.1-37.32,9.9-9.07,2.03-18.42,2.19-27.7,2.41-1.31-.11-2.62.22-3.72.93-1.64,1.35-1.27,4.16.23,5.63,1.63,1.4,3.7,2.19,5.85,2.25,10.71,1.13,21.23-2.68,31.76-4.94,4.93-1.07,9.92-1.8,14.91-2.52l16.3-2.37c18.35-2.64,36.96-5.25,55.36-3.09,6.53.77,13.03,2.13,19.61,2.06,10.93-.12,21.58-4.21,32.51-3.81,4.08.16,8.13.93,12.21.89,4.08-.05,8.38-1.13,11.26-3.96,5.54-5.54,7.14-18.75-3.73-18.35h.01Z" style="fill: rgb(104, 225, 253);"/><path class="cls-16_fishing-83" d="M486.72,320.28c-2.89,2.88-7.2,3.91-11.26,3.96s-8.13-.73-12.21-.89c-8.21-.3-16.28,1.94-24.42,3.11-2.68.41-5.38.65-8.09.7-6.58.07-13.08-1.3-19.61-2.06-18.4-2.16-37.01.45-55.36,3.09l-16.3,2.37-.69.1h0c-4.75.69-9.5,1.41-14.19,2.42-10.53,2.25-21.05,6.07-31.76,4.94-1.41-.1-2.8-.44-4.1-.99-.64-.3-1.23-.71-1.75-1.21-1.5-1.49-1.87-4.29-.23-5.63,1.1-.71,2.41-1.04,3.72-.93,9.28-.23,18.63-.38,27.7-2.41,10.73-2.39,20.92-7.38,31.66-9.24,1.86-.33,3.74-.56,5.63-.66,1.13-.07,2.25-.08,3.38-.08,3.93.17,7.86.07,11.77-.29,1.01-.13,2.01-.33,3-.59,6.89-1.82,13.37-7.01,20.27-5.47,1.54.34,3.01,1.01,4.56,1.28,4.61.82,9.11-1.85,13.78-1.99,3.71-.12,7.3,1.35,11,1.37,1.31,0,2.62-.15,3.9-.45,2.83-.77,5.61-1.68,8.35-2.73,2.2-.82,4.52-1.3,6.87-1.42,7.02-.15,13.62,4.66,20.57,3.69,3.63-.5,6.83-2.51,9.95-4.4,3.12-1.89,6.47-3.75,10.14-3.89,10.85-.42,9.25,12.8,3.73,18.29h-.01Z"/><path class="cls-26_fishing-83" d="M438.99,326.31l-.17.16c-2.68.41-5.38.65-8.09.7-6.58.07-13.08-1.3-19.61-2.06-18.4-2.16-37.01.45-55.36,3.09l-16.3,2.37-.69.1h0c-10.26.63-20.52,2.1-30.7,3.56-5.44.79-10.87,1.57-16.3,2.37l-3.05.45c-.64-.3-1.23-.71-1.75-1.21-1.5-1.49-1.87-4.29-.23-5.63,1.1-.71,2.41-1.04,3.72-.93,9.28-.23,18.63-.38,27.7-2.41,10.73-2.39,20.92-7.38,31.66-9.24.31.09.62.16.93.21,2.7.48,5.38-.24,8.08-.96,1.85-.56,3.77-.91,5.7-1.05,2.05.02,4.08.27,6.07.75,1.62.36,3.27.57,4.92.63,6.59,0,12.54-4.51,19.15-4.6,7.01-.16,13.62,4.65,20.57,3.69,3.62-.5,6.76-2.51,9.93-4.4.65-.39,1.33-.8,2-1.13,2.45-1.54,5.23-2.48,8.11-2.73h.24c10.57-.27,8.94,12.8,3.46,18.26h0Z"/></g><g id="character_fishing-83"><polygon class="cls-25_fishing-83 targetColor" points="217.09 223.89 207.01 238.61 192.33 229.36 184.64 235.48 206.23 251.88 224.07 245.04 217.09 223.89" style="fill: rgb(104, 225, 253);"/><polygon class="cls-14_fishing-83" points="217.09 223.89 207.01 238.61 192.33 229.36 184.64 235.48 206.23 251.88 224.07 245.04 217.09 223.89"/><path class="cls-24_fishing-83" d="M170.71,218.06s6.76-.45,8.5,1.13c1.92,2.04,3.74,4.18,5.43,6.41l6.32,5.17-5.81,3.27-9.15-6.27-5.29-9.7h0Z"/><path class="cls-24_fishing-83" d="M206.48,184.27s1.57,10.8,0,12.39,3.64,2.94,4.2,5.79c.56,2.85,4.35,4.85,9.77,3.31,3.12-.9,6.46.41,8.13,3.19,0,0,4.97-2.12,7.46-4.98,0,0-3.54-12.65-3.73-17.17s-16.56-13.29-25.83-2.53h0Z"/><path class="cls-25_fishing-83 targetColor" d="M204.16,183.07c.84,0,37.09,9.18,37.09,9.18,0,0-4.17-15.77-2.8-23.09,1.36-7.32-21.4-9.99-23.65-9.01-2.25.98-3.89,8.79-8,10.71-4.11,1.93-11.77,10.32-11.77,10.32l9.13,1.89Z" style="fill: rgb(104, 225, 253);"/><path class="cls-20_fishing-83" d="M241.27,192.25s-36.25-9.18-37.09-9.18l-9.17-1.93.21-.24,3.3.7c.84,0,37.09,9.18,37.09,9.18,0,0-4.17-15.77-2.8-23.09.56-3.02-2.98-5.24-7.5-6.76,6.76,1.33,13.94,4,13.16,8.22-1.36,7.31,2.8,23.09,2.8,23.09h0Z"/><path class="cls-25_fishing-83 targetColor" d="M195.01,181.14s-3.78,1.57,11.71,4.99c0,0-.79-2.17.29-2.43l-12.01-2.56h0Z" style="fill: rgb(104, 225, 253);"/><path class="cls-25_fishing-83 targetColor" d="M241.27,192.25s1.61,1.41-2.19,1.76c-1.84.25-3.7.25-5.54,0l-.8-3.92,8.53,2.16Z" style="fill: rgb(104, 225, 253);"/><path class="cls-21_fishing-83" d="M195.01,181.14s-3.78,1.57,11.71,4.99c0,0-.79-2.17.29-2.43l-12.01-2.56h0Z"/><path class="cls-19_fishing-83" d="M241.27,192.25s1.61,1.41-2.19,1.76c-1.84.25-3.7.25-5.54,0l-.8-3.92,8.53,2.16Z"/><path class="cls-23_fishing-83" d="M224.07,187.91l.36,4.58s1.39-3.62,3.38-2.41c1.99,1.21-1.86,6.48-1.86,6.48l5.16,2.77,1.24-.71,1.96.71.72-.71.62-1.19s-2.15-4.16-1.91-5.18c.14-.61.23-1.22.26-1.85l-9.92-2.49h-.01Z"/><path class="cls-25_fishing-83 targetColor" d="M236.04,203.92s-16.48,7.38-18.02,11.34-2.73,40.8-2.73,40.8l56.01-1.25s-5.71-43.57-35.27-50.89h.01Z" style="fill: rgb(104, 225, 253);"/><path class="cls-25_fishing-83 targetColor" d="M238.46,206.87l-9.45,5.72s-9.86,17.12-10.87,21.11-1.34,19.84-1.34,19.84l-3.29-6.57s1.64-15.62,3.62-19.93c2.47-5.26,5.43-10.27,8.85-14.97,2.6-3.18,4.9-5.95,4.9-5.95l6.3-4.13,2.11,2.91-.82,1.97h-.01Z" style="fill: rgb(104, 225, 253);"/><path class="cls-17_fishing-83" d="M238.46,206.87l-9.45,5.72s-9.86,17.12-10.87,21.11-1.34,19.84-1.34,19.84l-3.29-6.57s1.64-15.62,3.62-19.93c2.47-5.26,5.43-10.27,8.85-14.97,2.6-3.18,4.9-5.95,4.9-5.95l6.3-4.13,2.11,2.91-.82,1.97h-.01Z"/><path class="cls-25_fishing-83 targetColor" d="M237.58,212.59s-12.27,16.37-12.94,24.04c-.68,7.67-12.68,10.82-12.68,10.82l-22.17-13.36-8.01,10.2,12.32,10.51h38.22s15.34-16.2,15.96-21.11c.62-4.91,2.38-18.37-10.7-21.11h0Z" style="fill: rgb(104, 225, 253);"/><path class="cls-18_fishing-83" d="M248.27,233.7c-.62,4.91-7.01,20.27-7.01,20.27l-47.16.88-12.32-10.46,1.73-2.25,6.27-8,22.17,13.36s12-3.15,12.68-10.82,12.94-24.04,12.94-24.04c5.86,1.23,8.73,4.61,10.07,8.39,1.66,4.64.97,9.96.62,12.67h0Z"/><path class="cls-25_fishing-83 targetColor" d="M247.34,229.33c-.63,4.91-21.4,25.11-21.4,25.11l-26.35.34-16.06-12.72,6.27-8,22.17,13.36s12-3.15,12.68-10.82c.69-7.67,12.94-24.04,12.94-24.04,5.86,1.23,8.73,4.61,10.07,8.39.2,2.8.09,5.61-.33,8.38h0Z" style="fill: rgb(104, 225, 253);"/><path class="cls-24_fishing-83" d="M188.33,234.96s-5.54-6.12-6.54-9.75c-1-3.64-7.03-4.3-7.41-4.78s-7.88-.57-7.88-.57c0,0-.87.47-1.05,2.87s1.43,7.81,4.11,11.03c2.68,3.22,8.22,3.5,8.5,3.5s5.03,5.37,5.03,5.37c0,0,6.68-4,5.24-7.67h0Z"/><path class="cls-25_fishing-83 targetColor" d="M171.59,219.97s-9.54-25.96-57.64-37.53c-48.1-11.57-78.12,1.24-78.12,1.24,0,0,42.8-9.54,85.76,2.98,37.65,10.97,46.62,33.24,46.62,33.24l3.38.07h0Z" style="fill: rgb(104, 225, 253);"/><path class="cls-25_fishing-83 targetColor" d="M35.83,183.63l1.84,155.72h1.52l-2.68-155.85s-.17-.48-.68.14h0Z" style="fill: rgb(104, 225, 253);"/><path class="cls-6_fishing-83" d="M271.31,254.8l-8.35-.7c-.61-4.21-4.71-26.85-23.07-44.49l-8.01-4.27c1.69-1.24,3.46-2.37,5.31-3.38l2.11,2.91,8.81,4.74c20.33,19.53,23.2,45.19,23.2,45.19Z"/><path class="cls-3_fishing-83" d="M224.75,194s1.05-.2,1.01-1.01.73-2.5,1.24-2.16.33,3.29-1.32,4.36-.93-1.18-.93-1.18h0Z"/><path class="cls-4_fishing-83" d="M190.96,251.85l79.17-3.04,1.13,5.97-19.52,1.04-23.24.29h-15.77l-18.69-1.27-3.09-2.98h.01Z"/></g><g id="boat_fishing-83"><path class="cls-25_fishing-83 targetColor" d="M397.35,205.43v29.95l75.73-14.95v-22.53c-.03-11.9-9.69-21.53-21.59-21.5-1.58,0-3.15.18-4.7.53l-32.66,7.45c-9.83,2.22-16.8,10.97-16.77,21.05h-.01Z" style="fill: rgb(104, 225, 253);"/><path class="cls-25_fishing-83 targetColor" d="M463.41,222.37l-6.94,27.98s-16.65,31.11-45.32,19.69c-28.68-11.42-7.46-42.42-7.46-42.42l59.72-5.25Z" style="fill: rgb(104, 225, 253);"/><polygon class="cls-25_fishing-83 targetColor" points="438.91 309.96 435.54 270.03 443.29 264.58 445.1 317.42 438.91 319.42 438.91 309.96" style="fill: rgb(104, 225, 253);"/><polygon class="cls-5_fishing-83" points="438.91 309.96 435.54 270.03 443.29 264.58 445.1 317.42 438.91 319.42 438.91 309.96"/><path class="cls-12_fishing-83" d="M397.35,205.43v29.95l75.73-14.95v-22.53c-.03-11.9-9.69-21.53-21.59-21.5-1.58,0-3.15.18-4.7.53l-32.66,7.45c-9.83,2.22-16.8,10.97-16.77,21.05h-.01Z"/><path class="cls-10_fishing-83" d="M463.41,222.37l-6.94,27.98s-16.65,31.11-45.32,19.69c-28.68-11.42-7.46-42.42-7.46-42.42l59.72-5.25Z"/><line class="cls-1_fishing-83" x1="438.91" y1="309.96" x2="435.54" y2="270.03"/><path class="cls-25_fishing-83 targetColor" d="M109.63,247.17s114.73,47.49,323.06-6.43c0,0-10.98,64.82-68.78,81.1-57.79,16.28-148.48,17.5-185.38,0-63.01-29.92-68.91-74.67-68.91-74.67h.01Z" style="fill: rgb(104, 225, 253);"/><path class="cls-8_fishing-83" d="M109.63,247.17s114.73,47.49,323.06-6.43c0,0-10.98,64.82-68.78,81.1-57.79,16.28-148.48,17.5-185.38,0-63.01-29.92-68.91-74.67-68.91-74.67h.01Z"/><path class="cls-25_fishing-83 targetColor" d="M109.63,247.17l-10.37-5.56v-13.99s11.61,27.19,94.85,27.19c27.69,0,49.76,2.64,77.17,0,88.59-8.53,172.02-30.92,172.02-30.92l-1.81,13.1-8.79,3.75s-234.29,61.4-323.06,6.43h0Z" style="fill: rgb(104, 225, 253);"/><path class="cls-7_fishing-83" d="M109.63,247.17l-10.37-5.56v-13.99s41.57,28.54,124.81,28.54c117.2,0,219.22-32.27,219.22-32.27l-1.81,13.1-8.79,3.75s-234.29,61.4-323.06,6.43h0Z"/><polygon class="cls-11_fishing-83" points="252.56 253.93 254.16 254.06 217.44 254.8 217.36 254.64 252.56 253.93"/><path class="cls-9_fishing-83" d="M263.03,254.8l-8.86-.74,6.65-.14,2.12.18c.08.42.1.7.1.7h-.01Z"/><path class="cls-25_fishing-83 targetColor" d="M425.52,261.34s-.83,2.73-2.25,6.56c-3.09,8.22-9.01,21.55-15.54,24.1,0,0-144.32,45.91-255.57,14.32,0,0-20.27-14.34-28.92-27.24-1.47-2.09-2.61-4.39-3.38-6.83,0,0,99.86,29.44,249.89,4.74l55.78-15.66h0Z" style="fill: rgb(104, 225, 253);"/><path class="cls-13_fishing-83" d="M423.24,267.89c-3.09,8.22-9.01,21.55-15.54,24.1,0,0-144.32,45.91-255.57,14.32,0,0-20.27-14.34-28.92-27.24,18.61,4.78,112.64,25.91,246.54,3.84l53.5-15.03h0Z"/></g></svg>